<svg width="45" height="46" viewBox="0 0 45 46" fill="none" xmlns="http://www.w3.org/2000/svg">
<path fill-rule="evenodd" clip-rule="evenodd" d="M22.5415 45.3378C18.5519 45.3378 14.6124 44.4697 9.36242 42.4374C9.29982 42.4123 9.24975 42.3748 9.20801 42.3247C2.29714 33.6068 0.373274 27.6766 0.965873 16.9514C0.965873 16.8846 0.990913 16.822 1.02847 16.7678C7.18399 7.49903 12.2253 3.83492 22.6124 1.08894C22.6417 1.08059 22.675 1.07642 22.7043 1.07642C22.7376 1.07642 22.771 1.08059 22.8044 1.08894C33.5171 4.08115 38.5626 7.74525 44.3884 16.772C44.4218 16.8262 44.4426 16.8888 44.4468 16.9556C44.91 28.0689 42.9862 33.9991 36.2005 42.3289C36.1588 42.3789 36.1045 42.4165 36.0461 42.4415C30.6584 44.4447 26.4936 45.3378 22.5457 45.3378H22.5415Z" fill="#2284C3"/>
<path d="M22.7083 1.4393C33.3876 4.41899 38.3746 8.12482 44.0836 16.9679C44.5468 28.0478 42.5645 33.9321 35.9165 42.095C30.7417 44.0188 26.6061 44.9703 22.5413 44.9703C18.4766 44.9703 14.4244 44.0021 9.49162 42.095C2.60578 33.4105 0.748688 27.4803 1.33294 16.9721C7.4676 7.73254 12.5297 4.13521 22.7083 1.4393ZM22.7083 0.708984C22.6457 0.708984 22.5831 0.717331 22.5205 0.734024C12.0289 3.50923 6.9376 7.21089 0.723649 16.5673C0.652704 16.6758 0.610971 16.801 0.602625 16.9304C0.00167871 27.7641 1.94641 33.7527 8.92406 42.554C9.00335 42.6542 9.11185 42.7335 9.23288 42.7835C14.5287 44.8326 18.51 45.709 22.5455 45.709C26.581 45.709 30.7459 44.8076 36.1753 42.7877C36.2963 42.7418 36.4048 42.6667 36.4883 42.5624C43.3407 34.1491 45.2855 28.1647 44.8181 16.9429C44.8139 16.8135 44.7722 16.6883 44.7012 16.5756C38.8128 7.45711 33.7214 3.75545 22.9044 0.734024C22.8418 0.717331 22.775 0.708984 22.7083 0.708984Z" fill="white"/>
<path d="M7.80563 19.0967L7.32988 19.7811L6.39925 21.1875L5.77744 22.9903L5.44775 23.754L5.51035 25.0185L6.02783 25.8865L6.21146 26.9006L6.46185 27.6059L7.02106 28.6409L6.97933 29.1792L7.10453 29.7384L7.53855 30.5272L7.9517 31.0447L8.07689 31.6665" stroke="#201D1F" stroke-width="0.11" stroke-miterlimit="2.61"/>
<path fill-rule="evenodd" clip-rule="evenodd" d="M22.7085 36.3112C21.8196 36.0733 20.9224 35.6477 20.1336 35.0676C19.9709 34.9466 19.8081 34.8172 19.6537 34.6836C19.5953 34.6336 19.5369 34.5793 19.4743 34.5251C18.4518 34.9424 16.9745 35.414 15.4721 35.681C14.2118 35.9022 12.9265 35.9857 11.8498 35.7603C10.7313 35.5308 9.83409 34.9841 9.4126 33.9533C9.34165 33.778 9.28323 33.5861 9.24149 33.3816C8.37763 32.8099 7.95614 32.1171 7.81425 31.5579C7.78503 31.4369 7.76834 31.3242 7.75999 31.2199C7.75582 31.1614 7.75582 31.103 7.75999 31.0446C7.16739 30.4562 6.80432 29.8469 6.75842 29.2793C6.75007 29.1583 6.75424 29.0372 6.77511 28.9162C6.78763 28.8453 6.80015 28.7785 6.82102 28.7159L6.82519 28.7117C6.52889 28.3612 6.29102 28.0023 6.13243 27.5891C5.9655 27.1551 5.88204 26.6669 5.90708 26.0743C4.85125 25.1061 4.98062 23.5828 5.63164 22.2933C6.387 20.7868 7.4011 19.3553 7.84346 18.0909C8.08968 17.3856 8.28165 17.8238 8.28165 18.0449C8.28165 19.0966 8.11055 20.2275 7.89771 21.2375C7.87267 21.3418 7.85181 21.4503 7.78086 21.7967C7.67236 22.3183 7.67653 22.8024 7.82259 23.1572C7.88519 23.2991 7.96866 23.4242 8.08133 23.5161C8.19401 23.6079 8.3359 23.6788 8.51535 23.7164C8.92433 23.7957 9.50441 23.708 10.289 23.3783C12.1961 22.5771 14.0407 21.8718 15.3595 21.7842C16.8284 21.684 17.6798 22.2724 17.4002 24.1379C17.3626 24.3924 17.3167 24.6595 17.2791 24.8932C17.1748 25.5192 17.1164 25.8698 17.1581 26.2078C17.1873 26.4582 17.2541 26.7461 17.4336 27.0424C17.5838 27.2887 17.8133 27.5391 18.168 27.7853C18.1847 27.7352 18.2014 27.6851 18.2223 27.635C18.118 26.5709 18.2223 25.5109 18.673 24.5135C18.7523 24.3382 18.8441 24.1629 18.9484 23.9876L16.8952 13.9844C16.7533 13.2958 16.5947 12.8701 16.3235 12.6615C15.9604 12.3944 15.3636 12.4695 14.9505 12.5363C14.5958 12.5947 14.5958 12.3902 14.8461 12.2441C15.2301 12.0271 15.6975 11.7183 16.1148 11.4387C16.866 10.9379 17.6297 10.4914 18.4727 11.1299C18.577 10.4121 19.1446 10.0365 19.6829 9.66509C19.8373 9.54824 20.2213 9.33123 20.4258 9.03493C20.6177 8.75532 20.8431 8.65517 20.8848 8.98485C20.8932 9.07249 20.9266 9.24359 20.9558 9.43139C21.3439 9.01406 21.9198 8.77619 22.2954 8.37139C22.5124 8.14186 22.5166 7.92485 22.721 7.9165C22.9214 7.92902 22.9297 8.14186 23.1425 8.37139C23.5223 8.77619 24.0982 9.01406 24.4822 9.43139C24.5114 9.24359 24.5447 9.07249 24.5531 8.98485C24.5907 8.65517 24.816 8.75532 25.0122 9.03493C25.2208 9.33123 25.6047 9.54824 25.7592 9.66509C26.2892 10.0365 26.8609 10.4121 26.9652 11.1299C27.8082 10.4914 28.5677 10.9379 29.3231 11.4387C29.7404 11.7141 30.2078 12.0271 30.5918 12.2441C30.8422 12.386 30.838 12.5947 30.4874 12.5363C30.0785 12.4695 29.4775 12.3902 29.1144 12.6615C28.8432 12.866 28.6846 13.2958 28.5427 13.9844L26.4895 23.9876C26.5896 24.1587 26.6814 24.334 26.7607 24.5135C27.2073 25.5109 27.3158 26.575 27.2114 27.635C27.2323 27.6809 27.249 27.7352 27.2657 27.7853C27.6204 27.5391 27.85 27.2887 28.0002 27.0424C28.1796 26.7503 28.2464 26.4624 28.2756 26.2078C28.3174 25.8698 28.2589 25.5192 28.1546 24.8932C28.117 24.6595 28.0711 24.3924 28.0336 24.1379C27.7498 22.2766 28.6053 21.6882 30.0743 21.7842C31.393 21.8718 33.2334 22.5813 35.1448 23.3783C35.9252 23.708 36.5052 23.7957 36.9142 23.7164C37.0895 23.6788 37.2314 23.612 37.3441 23.5161C37.4567 23.4201 37.5402 23.2991 37.6028 23.1572C37.7489 22.8024 37.753 22.3183 37.6445 21.7967C37.5736 21.4503 37.5527 21.3418 37.5277 21.2375C37.319 20.2275 37.1479 19.0966 37.1479 18.0449C37.1479 17.8238 37.3399 17.3897 37.5861 18.0909C38.0285 19.3553 39.0384 20.7868 39.7938 22.2933C40.4448 23.5828 40.5741 25.1061 39.5183 26.0743C39.5434 26.6669 39.4599 27.1551 39.293 27.5891C39.1344 28.0065 38.8965 28.3612 38.6044 28.7117V28.7159C38.6252 28.7827 38.6419 28.8495 38.6545 28.9162C38.6753 29.0414 38.6795 29.1624 38.6712 29.2793C38.6252 29.8469 38.2622 30.4562 37.6696 31.0446C37.6696 31.103 37.6696 31.1614 37.6696 31.2199C37.6654 31.32 37.6445 31.4369 37.6153 31.5579C37.4776 32.1171 37.0519 32.8099 36.1881 33.3816C36.1463 33.5861 36.0879 33.778 36.017 33.9533C35.5996 34.9841 34.7024 35.5308 33.584 35.7603C32.5073 35.9815 31.2219 35.9022 29.9616 35.681C28.4592 35.414 26.9861 34.9424 25.9595 34.5251C25.901 34.5793 25.8426 34.6336 25.78 34.6836C25.6214 34.8214 25.4629 34.9466 25.3001 35.0676C24.5072 35.6477 23.6099 36.0733 22.7252 36.3112" fill="#201D1F"/>
<path fill-rule="evenodd" clip-rule="evenodd" d="M22.1616 20.44C22.3577 20.6863 22.558 20.9408 22.7083 21.2455C22.8585 20.9367 23.0588 20.6863 23.2508 20.44C23.5554 20.0561 23.8476 19.6889 23.8601 19.1338C23.8726 18.5621 23.5387 18.0947 23.2049 17.6273C23.0254 17.3769 22.846 17.1265 22.7083 16.8552C22.5664 17.1307 22.3869 17.3769 22.2116 17.6273C21.8736 18.0947 21.5398 18.5621 21.5564 19.1338C21.569 19.6847 21.8611 20.0561 22.1657 20.44" fill="white"/>
<path fill-rule="evenodd" clip-rule="evenodd" d="M9.48679 32.9808C9.95837 33.1853 10.3882 33.2897 10.8222 33.3356C11.2145 33.3773 11.6151 33.3731 12.0492 33.3564C12.3455 33.3439 12.3788 33.828 12.0408 33.8405C11.6026 33.8614 11.1895 33.8614 10.7721 33.8155C10.455 33.7821 10.1378 33.7195 9.80813 33.6152C9.829 33.6736 9.84986 33.732 9.87073 33.7863C10.2213 34.646 10.9892 35.105 11.9573 35.3012C12.9673 35.5056 14.19 35.4305 15.4003 35.2177C16.6606 34.9965 17.8959 34.6251 18.8515 34.2662C17.4243 34.0033 16.3142 33.515 15.5505 32.7722C14.6908 31.9334 14.2777 30.7774 14.3611 29.2667C14.4154 28.2818 14.7159 27.2677 14.9913 26.3287C15.1833 25.6735 15.3669 25.0475 15.4462 24.505C15.5881 23.4992 15.3418 22.7564 13.9772 22.5478C12.9339 22.8315 11.7195 23.3156 10.4717 23.8373C9.59112 24.2087 8.91506 24.3005 8.41844 24.2004C8.1597 24.1503 7.94269 24.0459 7.77159 23.8999C7.60049 23.7538 7.46694 23.5702 7.37931 23.3532C7.19151 22.9025 7.18316 22.3224 7.30836 21.7131C7.31671 21.6755 7.37096 21.4085 7.42521 21.1497C7.54206 20.5822 7.65474 20.0522 7.74238 19.4888C7.5212 19.927 7.26663 20.3693 7.01206 20.8117C6.21915 22.1889 5.42623 23.5744 5.69749 24.747C6.03552 26.216 7.75907 26.5499 9.01521 26.7335C9.55773 26.8128 9.49514 27.2927 8.90254 27.2009C8.20978 27.0882 7.40852 26.913 6.77001 26.6375C6.64064 26.5791 6.51545 26.5165 6.39442 26.4497C6.41112 26.8211 6.47789 27.1383 6.58639 27.4263C7.12474 28.8285 8.18474 28.9829 9.5327 29.1206C10.1545 29.1874 10.1295 29.6631 9.50348 29.6047C8.82742 29.5463 8.08041 29.4211 7.5212 29.1874C7.42521 29.1456 7.3334 29.1039 7.25411 29.058C7.12057 29.8092 7.71734 30.5103 8.43096 30.8525C9.16545 31.2072 10.0251 31.1989 10.6052 31.153C11.0351 31.1196 11.0434 31.6371 10.6136 31.6412C10.1545 31.6412 9.65372 31.6412 9.17797 31.5703C8.85246 31.5286 8.54364 31.4534 8.26821 31.3449C8.27238 31.3783 8.28073 31.4117 8.28907 31.4493C8.40175 31.9083 8.75647 32.4801 9.48679 32.9725" fill="white"/>
<path fill-rule="evenodd" clip-rule="evenodd" d="M21.2183 22.3557C20.1625 23.061 19.4948 23.8664 19.1067 24.7219C18.8104 25.3813 18.681 26.0782 18.6643 26.7835C18.9356 26.3745 19.2611 26.0073 19.5908 25.6317C20.3169 24.8054 21.0556 23.9624 21.1891 22.6687C21.1975 22.5644 21.2058 22.4642 21.2142 22.3557" fill="white"/>
<path fill-rule="evenodd" clip-rule="evenodd" d="M35.9246 32.9808C35.453 33.1853 35.019 33.2897 34.5891 33.3356C34.1969 33.3773 33.7962 33.3731 33.3622 33.3564C33.0659 33.3439 33.0325 33.828 33.3705 33.8405C33.8087 33.8614 34.2219 33.8614 34.6434 33.8155C34.9606 33.7821 35.2777 33.7195 35.6074 33.6152C35.5907 33.6736 35.5698 33.732 35.5448 33.7863C35.1943 34.646 34.4264 35.105 33.4582 35.3012C32.4483 35.5056 31.2255 35.4305 30.0194 35.2177C28.7591 34.9965 27.5238 34.6251 26.5682 34.2662C27.9954 34.0033 29.1055 33.515 29.865 32.7722C30.7289 31.9334 31.1379 30.7774 31.0544 29.2667C31.0002 28.2818 30.6997 27.2677 30.4242 26.3287C30.2323 25.6735 30.0487 25.0475 29.9694 24.505C29.8275 23.4992 30.0779 22.7564 31.4383 22.5478C32.4817 22.8315 33.6961 23.3156 34.9439 23.8373C35.8244 24.2087 36.5005 24.3005 36.9971 24.2004C37.26 24.1503 37.4728 24.0459 37.6439 23.8999C37.815 23.7538 37.9444 23.5702 38.0362 23.3532C38.224 22.9025 38.2324 22.3224 38.1072 21.7131C38.0988 21.6755 38.0446 21.4085 37.9903 21.1497C37.8693 20.5822 37.7608 20.0522 37.669 19.4888C37.8902 19.927 38.1447 20.3693 38.3993 20.8117C39.1922 22.1889 39.9851 23.5744 39.718 24.747C39.38 26.216 37.6565 26.5499 36.4003 26.7335C35.8578 26.8128 35.9204 27.2927 36.513 27.2009C37.2099 27.0882 38.0112 26.913 38.6455 26.6375C38.7749 26.5791 38.9001 26.5165 39.0169 26.4497C39.0044 26.8211 38.9376 27.1383 38.825 27.4263C38.2866 28.8285 37.2266 28.9829 35.8787 29.1206C35.2569 29.1874 35.2819 29.6631 35.9121 29.6047C36.5881 29.5463 37.3351 29.4211 37.8943 29.1874C37.9903 29.1456 38.078 29.1039 38.1656 29.058C38.2991 29.8092 37.6982 30.5103 36.9846 30.8525C36.2501 31.2072 35.3904 31.1989 34.8103 31.153C34.3805 31.1196 34.3763 31.6371 34.802 31.6412C35.261 31.6412 35.7618 31.6412 36.2376 31.5703C36.5631 31.5286 36.8719 31.4534 37.1473 31.3449C37.1432 31.3783 37.1348 31.4117 37.1265 31.4493C37.0138 31.9083 36.6549 32.4801 35.9287 32.9725" fill="white"/>
<path fill-rule="evenodd" clip-rule="evenodd" d="M24.1936 22.3557C25.2494 23.061 25.9171 23.8664 26.301 24.7219C26.6015 25.3813 26.7309 26.0782 26.7434 26.7835C26.4722 26.3745 26.1466 26.0073 25.817 25.6317C25.0908 24.8054 24.3521 23.9624 24.2144 22.6687C24.2061 22.5644 24.1936 22.4642 24.1894 22.3557" fill="white"/>
<path fill-rule="evenodd" clip-rule="evenodd" d="M22.708 32.2546C22.5828 32.2546 22.562 32.4591 22.4994 32.6427C22.4409 32.8097 22.3742 32.9599 22.2865 33.1185C22.2406 33.202 22.1989 33.2813 22.1613 33.3647C21.7941 34.1868 22.1905 34.7461 22.7122 35.2802C23.2505 34.7168 23.6303 34.1827 23.2589 33.3647C23.2255 33.2813 23.1754 33.1978 23.1337 33.1185C23.0461 32.9641 22.9751 32.8139 22.9209 32.6427C22.8541 32.4591 22.8374 32.2546 22.7122 32.2546" fill="white"/>
<path fill-rule="evenodd" clip-rule="evenodd" d="M23.6802 20.8496C23.6802 20.8496 23.6469 20.8872 23.6302 20.908C23.3673 21.2419 23.0918 21.5883 22.9833 22.0765C22.8623 22.6191 22.5535 22.665 22.4325 22.1016C22.3406 21.6592 22.1111 21.3337 21.8732 21.0291V21.0416C21.8273 20.9832 21.7773 20.9206 21.7313 20.858C21.7313 21.4506 21.7313 22.2059 21.6729 22.7192C21.5185 24.1673 20.7298 25.0729 19.9535 25.9577C19.3443 26.6504 18.7517 27.3306 18.543 28.2321L18.4679 28.5534L18.1841 28.3865C17.5957 28.0443 17.2368 27.6729 17.0156 27.3098C16.7902 26.9425 16.7068 26.5878 16.6692 26.2832C16.6233 25.8825 16.6817 25.5069 16.7986 24.8351C16.8278 24.6389 16.8654 24.4136 16.9154 24.088C17.1324 22.6691 16.4898 22.2184 15.388 22.2936C15.2587 22.3019 15.1209 22.3186 14.9832 22.3395C15.9055 22.761 16.0724 23.5664 15.9264 24.5805C15.8471 25.1606 15.6593 25.7991 15.459 26.4793C15.1919 27.3932 14.9039 28.3698 14.8497 29.3088C14.7704 30.6734 15.1335 31.7042 15.893 32.4429C16.665 33.1982 17.8544 33.6656 19.4235 33.8868L19.5613 33.9577C19.6948 34.0955 19.8325 34.229 19.9744 34.35C20.1163 34.4752 20.2665 34.5962 20.4251 34.7089C20.9468 35.0929 22.0151 35.8858 22.6411 35.8774C23.2963 35.8691 24.9948 34.7089 24.9948 34.7089C24.9948 34.7089 25.2995 34.4711 25.4455 34.35C25.5874 34.2248 25.7251 34.0955 25.8587 33.9577L26.0006 33.8868C27.5697 33.6656 28.7591 33.1982 29.5311 32.4429C30.2907 31.7042 30.6496 30.6734 30.5744 29.3088C30.5202 28.3698 30.2322 27.3932 29.961 26.4793C29.7648 25.8032 29.577 25.1606 29.4936 24.5805C29.3475 23.5706 29.5144 22.7651 30.4367 22.3395C30.2948 22.3186 30.1613 22.3019 30.0319 22.2936C28.9302 22.2184 28.2833 22.6691 28.5003 24.088C28.5504 24.4177 28.588 24.6389 28.6214 24.8351C28.734 25.5111 28.7966 25.8825 28.7507 26.2832C28.7132 26.5878 28.6297 26.9425 28.4044 27.3098C28.1832 27.6729 27.8243 28.0443 27.2358 28.3865L26.9521 28.5534L26.8769 28.2321C26.6683 27.3265 26.0715 26.6504 25.4664 25.9577C24.6902 25.0729 23.8931 24.1673 23.747 22.7192C23.6928 22.2017 23.6886 21.4422 23.6928 20.8496" fill="white"/>
<path fill-rule="evenodd" clip-rule="evenodd" d="M21.2476 20.1605C21.1433 19.931 21.0724 19.6723 21.0682 19.3635C21.0515 18.6331 21.4313 18.099 21.8152 17.5648C22.1616 17.0807 22.4412 16.776 22.5497 16.0791C22.6039 15.7327 22.7959 15.787 22.846 16.0875C22.9587 16.7343 23.2466 17.0682 23.5972 17.5648C23.9811 18.099 24.3609 18.6331 24.3483 19.3635C24.34 19.6764 24.2691 19.9352 24.1689 20.1605C24.1689 20.6697 24.1647 21.3332 24.1689 21.8215C24.9952 22.3265 25.6212 22.8898 26.0886 23.4908L26.0969 23.4449L28.05 13.9508C28.2169 13.1412 28.4173 12.6279 28.8054 12.3399C28.9556 12.2272 29.1309 12.1521 29.3354 12.1145C29.2811 12.077 29.2227 12.0394 29.1684 12.0019C28.5508 11.5887 27.929 11.1714 27.278 11.5845C27.0359 11.739 26.9232 11.8516 26.8773 12.1229L25.9175 17.4312C25.8298 17.8319 25.3499 17.7568 25.4501 17.3019L26.3765 12.1646C26.435 11.8433 26.531 11.4886 26.435 11.1672C26.2931 10.6915 25.8465 10.3826 25.4417 10.103C25.2581 9.97367 25.0745 9.85265 24.9284 9.71493C24.9117 9.83595 24.8909 9.95698 24.8783 10.053L24.2774 16.1584C24.2315 16.534 23.7516 16.4923 23.7975 16.0541L24.3108 10.8584C24.3609 10.3326 24.3859 10.0822 23.9936 9.71076C23.8267 9.55217 23.6347 9.40194 23.4469 9.26005C23.2508 9.10981 23.0588 8.98461 22.9044 8.83438C22.8251 8.75509 22.7542 8.67162 22.6999 8.58398C22.6415 8.67162 22.5747 8.75509 22.4954 8.83438C22.3452 8.98461 22.1491 9.10981 21.9529 9.26005C21.7651 9.40611 21.5731 9.55635 21.4062 9.71076C21.0139 10.0863 21.039 10.3326 21.0891 10.8584L21.6024 16.0541C21.6524 16.4964 21.1683 16.5382 21.1224 16.1584L20.5215 10.053C20.5048 9.95698 20.4881 9.83595 20.4672 9.71493C20.317 9.85265 20.1376 9.97367 19.9498 10.103C19.5491 10.3826 19.0984 10.6915 18.9607 11.1672C18.8647 11.4886 18.9607 11.8433 19.0191 12.1646L19.9456 17.3019C20.0457 17.7568 19.5658 17.8319 19.4782 17.4312L18.5183 12.1229C18.4683 11.8516 18.3598 11.739 18.1177 11.5845C17.4667 11.1714 16.8449 11.5845 16.2314 12.0019C16.173 12.0394 16.1187 12.077 16.0603 12.1145C16.2648 12.1521 16.4359 12.2272 16.5903 12.3399C16.9784 12.6279 17.1787 13.1453 17.3457 13.9508L19.2946 23.4449L19.3071 23.4908C19.7703 22.8898 20.4005 22.3265 21.2268 21.8215C21.2393 21.3332 21.2268 20.6697 21.2309 20.1605" fill="white"/>
<path fill-rule="evenodd" clip-rule="evenodd" d="M22.8925 39.9503C23.5394 39.9044 24.0527 39.6874 24.6578 39.462C25.5718 39.1156 26.3939 38.811 28.0131 39.22C28.4596 39.3326 28.9312 39.5371 29.432 39.7541C30.4837 40.2049 31.6438 40.7056 32.996 40.593L33.1253 40.1589C32.5452 39.7041 32.3574 38.8444 32.178 38.0348C32.1321 37.8219 32.0862 37.6091 32.0278 37.3921L31.9819 37.221L31.8066 37.2085C30.8092 37.1334 30.1331 36.8329 29.2484 36.5199C28.8686 36.3863 28.5723 36.1944 28.0924 36.0441C26.7904 35.6393 25.4466 36.0316 24.3448 36.3112C23.7606 36.4615 23.2807 36.8454 22.759 36.8663H22.7214H22.6881C22.1664 36.8496 22.0162 36.4615 21.4319 36.3112C20.326 36.0316 19.1325 35.727 17.8304 36.1359C17.3505 36.2862 16.8247 36.595 16.4449 36.7327C15.5643 37.0499 14.8674 37.2502 13.966 37.2126L13.7949 37.2252L13.749 37.3963C13.6906 37.6174 13.6447 37.8261 13.5988 38.0389C13.4193 38.8486 13.2315 39.7082 12.6514 40.1631L12.7808 40.5971C14.1329 40.7098 15.2973 40.209 16.3447 39.7583C16.8455 39.5413 17.3255 39.3368 17.7636 39.2241C19.387 38.8152 20.205 39.124 21.1231 39.4662C21.724 39.6915 22.2415 39.9086 22.8884 39.9545" fill="white"/>
<path d="M32.6068 40.7726C31.3882 40.7726 30.3198 40.3135 29.3767 39.9045L29.3391 39.8879C28.855 39.6792 28.396 39.4831 27.9745 39.3787C27.4653 39.2494 27.0188 39.1868 26.6015 39.1868C25.8461 39.1868 25.2994 39.3954 24.7152 39.6124C24.6526 39.6375 24.59 39.6583 24.5316 39.6834C24.0057 39.8837 23.5091 40.0673 22.9082 40.109H22.8957H22.8831C22.2738 40.0673 21.7772 39.8795 21.2514 39.6792C21.193 39.6583 21.1345 39.6375 21.0719 39.6124C20.4877 39.3912 19.9368 39.1868 19.1856 39.1868C18.7683 39.1868 18.3218 39.2494 17.8127 39.3787C17.387 39.4872 16.9196 39.6875 16.423 39.9004H16.4104C15.4673 40.3135 14.3989 40.7726 13.1762 40.7726C13.0426 40.7726 12.9049 40.7642 12.7714 40.7559L12.6587 40.7475L12.4667 40.1007L12.5544 40.0339C13.0885 39.6124 13.268 38.7945 13.4433 38.0016L13.46 37.9223C13.5017 37.747 13.5393 37.5592 13.5893 37.3714L13.6686 37.0709L13.9649 37.0459H13.9774C14.0484 37.0501 14.1235 37.0501 14.1945 37.0501C14.9289 37.0501 15.5341 36.8831 16.3938 36.5743C16.5523 36.5159 16.7443 36.4282 16.9446 36.3323C17.2201 36.2029 17.5038 36.0652 17.7834 35.9775C18.2258 35.8398 18.6765 35.773 19.1606 35.773C19.9786 35.773 20.7381 35.965 21.4726 36.1528C21.7689 36.2279 21.965 36.3615 22.1361 36.4741C22.3156 36.5952 22.4616 36.6912 22.6912 36.7037H22.7621C23.0292 36.6953 23.3005 36.5701 23.5884 36.4366C23.8138 36.3323 24.0516 36.2238 24.3104 36.157C24.3813 36.1403 24.4481 36.1194 24.519 36.1027C25.2368 35.9191 26.0506 35.7104 26.8894 35.7104C27.3443 35.7104 27.7533 35.7689 28.1456 35.8941C28.4252 35.9817 28.6422 36.0819 28.8509 36.1778C29.0053 36.2488 29.1472 36.3156 29.3057 36.3698C29.4393 36.4157 29.5645 36.4616 29.6897 36.5075C30.3908 36.7663 30.9959 36.9875 31.8264 37.0501L32.1143 37.0751L32.1936 37.3756C32.252 37.5968 32.298 37.8138 32.3397 38.0057C32.515 38.7945 32.6944 39.6166 33.2244 40.0339L33.312 40.1007L33.1201 40.7475L33.0116 40.7559C32.878 40.7642 32.7445 40.7726 32.6068 40.7726ZM26.5973 38.8654C27.0397 38.8654 27.5154 38.9322 28.0496 39.0657C28.4961 39.1784 28.9677 39.3787 29.4643 39.5957L29.5019 39.6124C30.4158 40.0047 31.4508 40.4512 32.6026 40.4512C32.6902 40.4512 32.782 40.4512 32.8697 40.4429L32.9365 40.2175C32.3814 39.7168 32.1978 38.8821 32.0183 38.0725C31.9766 37.8805 31.9307 37.6593 31.8681 37.434L31.8556 37.3756H31.7972C30.925 37.3046 30.299 37.0751 29.577 36.808C29.456 36.7621 29.3266 36.7162 29.1972 36.6703C29.0261 36.6119 28.8717 36.5409 28.7131 36.4658C28.5128 36.374 28.3083 36.278 28.0496 36.1987C27.6865 36.086 27.3068 36.0318 26.8894 36.0318C26.0924 36.0318 25.2994 36.2363 24.5983 36.4157C24.5274 36.4324 24.4606 36.4533 24.3897 36.47C24.156 36.5284 23.9348 36.6327 23.722 36.7329C23.4048 36.879 23.1043 37.0208 22.7705 37.0292H22.7287H22.6828C22.3531 37.0167 22.1486 36.879 21.9525 36.7454C21.7981 36.6411 21.6353 36.5326 21.3933 36.47C20.6755 36.2864 19.9368 36.1027 19.1606 36.1027C18.7099 36.1027 18.2926 36.1653 17.8836 36.2947C17.6249 36.374 17.3536 36.5075 17.0865 36.6327C16.8778 36.7329 16.6775 36.8247 16.5023 36.8873C15.6092 37.2086 14.979 37.3797 14.1945 37.3797C14.1193 37.3797 14.0484 37.3797 13.9733 37.3797H13.9232L13.9107 37.4256L13.8898 37.5592H13.8773C13.8397 37.7094 13.8063 37.8555 13.7771 37.9974L13.7604 38.0725C13.581 38.8821 13.3974 39.7168 12.8423 40.2175L12.9091 40.4429C12.9967 40.4471 13.0885 40.4512 13.1762 40.4512C14.328 40.4512 15.363 40.0047 16.2811 39.6083H16.2936C16.8027 39.3871 17.2785 39.1784 17.7334 39.0657C18.2675 38.9322 18.7433 38.8654 19.1856 38.8654C19.9953 38.8654 20.5753 39.0824 21.1888 39.3161C21.2472 39.337 21.3098 39.362 21.3682 39.3829C21.8899 39.579 22.3448 39.7501 22.8998 39.7919C23.4507 39.7501 23.9014 39.5832 24.4189 39.3871C24.4815 39.362 24.5399 39.3412 24.6067 39.3161C25.216 39.0866 25.7961 38.8696 26.6057 38.8696" fill="#201D1F"/>
<path d="M32.5449 39.1698C32.5783 39.249 32.6159 39.3325 32.6576 39.416C31.6727 39.6372 30.5752 39.2157 29.5694 38.7608C28.8141 38.4186 28.0587 38.0764 27.3409 38.0471C26.523 38.0138 25.7551 38.0847 25.0081 38.2642C24.2611 38.4436 23.5308 38.7274 22.7796 39.103C22.7754 39.103 22.7712 39.1071 22.7629 39.1113C22.7629 39.1113 22.7629 39.1113 22.7587 39.1113H22.7504H22.742H22.7337H22.7211H22.7128H22.7003H22.6961C22.6961 39.1113 22.6961 39.1113 22.6878 39.1113H22.6836C22.6836 39.1113 22.6794 39.1072 22.6752 39.1072C21.9241 38.7274 21.1896 38.4478 20.4426 38.2683C19.6914 38.0889 18.9277 38.0138 18.1097 38.0513C17.3878 38.0847 16.6992 38.4269 16.0189 38.7649C15.1259 39.2073 14.1618 39.5954 13.1853 39.3701L13.3022 39.1238C14.1869 39.3242 15.0549 38.9444 15.9021 38.5229C16.6074 38.1723 17.321 37.8218 18.0972 37.7842C18.9402 37.7425 19.7289 37.826 20.5052 38.0096C21.2563 38.189 21.9908 38.4728 22.7462 38.8484C23.4974 38.4728 24.236 38.189 24.983 38.0096C25.7551 37.826 26.548 37.7467 27.391 37.7842C28.1589 37.8218 28.9393 38.1723 29.7197 38.5229C30.6837 38.9569 31.6853 39.3784 32.5867 39.1781" fill="#201D1F"/>
<path d="M22.8208 36.77H22.5496V38.865H22.8208V36.77Z" fill="#201D1F"/>
<path d="M8.39399 16.2418C7.53848 15.837 7.11281 15.6325 6.25729 15.2235C6.09871 15.5657 6.01942 15.7368 5.87335 16.0915C5.69391 16.0164 5.60627 15.9788 5.42682 15.9079C5.83162 14.9314 6.06115 14.4723 6.55777 13.6001C6.7247 13.6961 6.80816 13.7462 6.97509 13.8421C6.79147 14.1593 6.70383 14.3221 6.5369 14.6518C7.37572 15.0899 7.79722 15.307 8.63604 15.741C8.53588 15.9371 8.4858 16.0373 8.39399 16.2418Z" fill="#201D1F"/>
<path d="M6.76715 13.2454C6.89652 13.0284 6.96329 12.9199 7.10101 12.7112C7.61849 13.0534 7.87306 13.2204 8.39054 13.5626C8.59503 13.7003 8.73274 13.7796 8.79952 13.8088C8.90802 13.8547 9.0207 13.8589 9.12503 13.8255C9.23353 13.7921 9.32952 13.7128 9.41716 13.5876C9.50479 13.4624 9.54653 13.3497 9.53818 13.2454C9.52983 13.1411 9.49227 13.0534 9.4255 12.9825C9.35456 12.9116 9.23353 12.8072 9.05408 12.6695C8.54912 12.2897 8.29873 12.0978 7.79377 11.718C7.93983 11.5177 8.01495 11.4217 8.16936 11.2297C8.63676 11.6053 8.87046 11.7973 9.33369 12.1729C9.60078 12.3899 9.78023 12.5527 9.87204 12.6612C9.96385 12.7738 10.0264 12.8907 10.0557 13.0117C10.0849 13.1327 10.0849 13.2621 10.0557 13.3998C10.0264 13.5375 9.95133 13.6878 9.83448 13.8589C9.69259 14.0634 9.56322 14.2053 9.43802 14.2804C9.317 14.3555 9.1918 14.4014 9.06243 14.4139C8.93723 14.4264 8.82038 14.4139 8.71188 14.3764C8.5533 14.3221 8.34046 14.2136 8.06503 14.0467C7.54755 13.7295 7.28881 13.5667 6.77132 13.2496" fill="#201D1F"/>
<path d="M11.1153 12.169C10.4225 11.5221 10.0762 11.2008 9.37922 10.5539C9.14552 10.8085 9.03285 10.9379 8.80749 11.2049C8.66143 11.0798 8.58631 11.0172 8.44025 10.892C9.05371 10.1575 9.37922 9.81109 10.0678 9.17676C10.1972 9.31865 10.264 9.38959 10.3933 9.53148C10.1429 9.76101 10.0219 9.88203 9.78403 10.1241C10.4601 10.7918 10.794 11.1257 11.47 11.7934C11.3281 11.9394 11.2572 12.0146 11.1195 12.1648" fill="#201D1F"/>
<path d="M13.2567 10.2407C12.3845 9.46445 11.9338 9.09303 10.999 8.37523C11.1868 8.22499 11.2786 8.14988 11.4706 8.00799C12.0841 8.52964 12.3845 8.79673 12.9688 9.34342C12.6641 8.59641 12.5223 8.21665 12.2552 7.44877C12.4847 7.29436 12.5974 7.21924 12.8311 7.07318C13.4278 7.64491 13.7158 7.93704 14.275 8.53381C14.0038 7.76594 13.8786 7.382 13.6407 6.59743C13.8452 6.48475 13.9453 6.4305 14.1498 6.32617C14.4336 7.46547 14.5922 8.02885 14.9511 9.13893C14.7716 9.23909 14.6798 9.29334 14.5004 9.40185C13.8869 8.77169 13.5739 8.46704 12.9229 7.87027C13.2067 8.70492 13.3569 9.11807 13.6866 9.93185C13.5113 10.0529 13.4237 10.1155 13.2484 10.2448" fill="#201D1F"/>
<path d="M14.4116 6.19276C14.616 6.09261 14.7204 6.04253 14.929 5.94654C15.192 6.50576 15.3213 6.78954 15.5801 7.34875C15.6844 7.56993 15.7553 7.71182 15.7971 7.77442C15.8638 7.8704 15.9515 7.933 16.0558 7.96639C16.1601 7.99977 16.2728 7.98725 16.4022 7.933C16.5316 7.87875 16.6192 7.8078 16.6609 7.72017C16.7027 7.63253 16.7152 7.54072 16.6943 7.44473C16.6735 7.34875 16.6192 7.19434 16.5357 6.98568C16.3062 6.39725 16.1894 6.10513 15.9557 5.5167C16.1685 5.43323 16.277 5.39567 16.4898 5.32056C16.6943 5.88394 16.7945 6.16772 16.999 6.73111C17.1158 7.05245 17.1826 7.28615 17.2076 7.42804C17.2285 7.56993 17.2243 7.6993 17.1909 7.81615C17.1575 7.933 17.095 8.03733 17.0073 8.13332C16.9155 8.2293 16.7861 8.31277 16.6109 8.38371C16.398 8.47135 16.2269 8.51308 16.0934 8.50474C15.9598 8.49639 15.8346 8.463 15.7303 8.40458C15.6218 8.34615 15.5342 8.27103 15.4632 8.17922C15.3589 8.04985 15.2379 7.83702 15.096 7.55324C14.8247 7.01072 14.687 6.73528 14.4157 6.19276" fill="#201D1F"/>
<path d="M17.9427 7.84532C17.5922 6.76028 17.4169 6.21776 17.0663 5.13272C17.5212 4.98666 17.7508 4.92406 18.2182 4.80721C18.5103 4.73626 18.7315 4.71122 18.8734 4.73626C19.0152 4.75713 19.1404 4.82807 19.2448 4.94075C19.3491 5.05343 19.42 5.19532 19.4493 5.35808C19.491 5.56674 19.466 5.75036 19.3783 5.91312C19.2949 6.0717 18.9318 6.27619 18.9318 6.27619C18.9318 6.28453 19.1655 6.38052 19.2531 6.45146C19.3408 6.52241 19.4701 6.65178 19.6287 6.84792C19.7915 7.04406 19.8708 7.14005 20.0252 7.34036C19.7956 7.38209 19.683 7.40296 19.4576 7.44887C19.2698 7.23603 19.1697 7.12753 18.9693 6.92304C18.7941 6.73942 18.673 6.62257 18.6104 6.58083C18.5478 6.53493 18.4894 6.50989 18.431 6.50571C18.3726 6.49737 18.2849 6.50989 18.1723 6.54327C18.1305 6.55579 18.1138 6.55997 18.0721 6.57249C18.2056 7.02737 18.2724 7.2569 18.4018 7.71595C18.214 7.76603 18.1222 7.79524 17.9386 7.85367M17.9427 6.1343C18.093 6.09256 18.1681 6.0717 18.3225 6.02997C18.5687 5.96319 18.7231 5.91729 18.7774 5.87973C18.8358 5.84217 18.8734 5.79209 18.8942 5.72949C18.9193 5.66689 18.9193 5.59178 18.9026 5.50831C18.8817 5.4165 18.84 5.34556 18.7774 5.29548C18.7189 5.24957 18.6397 5.22453 18.5478 5.23288C18.5019 5.23288 18.3726 5.26209 18.1556 5.32052C17.9886 5.36225 17.9052 5.38729 17.7382 5.43319C17.8217 5.7128 17.8593 5.85052 17.9427 6.13012" fill="#201D1F"/>
<path d="M20.2759 7.29466C20.0881 6.17206 19.9963 5.60868 19.8085 4.4819C20.0338 4.44434 20.1465 4.43182 20.3677 4.39844C20.5221 5.52938 20.5972 6.09277 20.7474 7.22372C20.5555 7.24876 20.4595 7.26128 20.2717 7.29466" fill="#201D1F"/>
<path d="M22.1319 7.10283C22.0777 5.96354 22.0526 5.39598 21.9942 4.25668C22.2237 4.24834 22.3364 4.24416 22.5618 4.23999C22.5701 4.68653 22.5743 4.91188 22.5826 5.35842C23 5.35007 23.2086 5.35842 23.6259 5.37094C23.6426 4.9244 23.6551 4.69905 23.6718 4.25251C23.8972 4.26086 24.014 4.2692 24.2394 4.2859C24.1601 5.42102 24.1184 5.98858 24.0391 7.12787C23.8471 7.11535 23.7511 7.11118 23.5592 7.10283C23.58 6.60621 23.5884 6.35582 23.6092 5.85921C23.2044 5.84251 23 5.84251 22.5951 5.84669C22.6035 6.3433 22.6077 6.5937 22.616 7.09448C22.424 7.09448 22.3281 7.09866 22.1361 7.107" fill="#201D1F"/>
<path d="M26.6566 7.51595C26.4521 7.47005 26.3478 7.44501 26.1433 7.40328C26.1141 7.13201 26.0974 6.99847 26.064 6.72721C25.6717 6.65627 25.4756 6.62288 25.0833 6.5728C24.9664 6.81902 24.9122 6.94422 24.8037 7.19044C24.5992 7.1654 24.499 7.15705 24.2946 7.14036C24.762 6.03445 25.0332 5.49193 25.63 4.42358C25.8679 4.45697 25.9847 4.47784 26.2226 4.5154C26.4688 5.71311 26.5523 6.31406 26.6608 7.51178M25.9931 6.22225C25.9305 5.78406 25.8929 5.56288 25.8136 5.12051C25.6008 5.51697 25.5006 5.71311 25.3045 6.11374C25.5799 6.1513 25.7176 6.17217 25.9931 6.22225Z" fill="#201D1F"/>
<path d="M26.9064 7.57811C27.1944 6.4722 27.3363 5.92134 27.6201 4.81543C27.8329 4.86968 27.9414 4.89889 28.1542 4.95732C28.3879 5.81283 28.4797 6.24268 28.6175 7.09819C28.872 6.38039 29.0014 6.02149 29.256 5.3037C29.4563 5.37464 29.5523 5.40803 29.7526 5.48315C29.3394 6.54732 29.1349 7.0815 28.7176 8.14567C28.5382 8.0789 28.4464 8.04134 28.2627 7.97874C28.1459 7.14827 28.0624 6.73512 27.8538 5.90464C27.6493 6.61827 27.5449 6.97717 27.3404 7.69079C27.1693 7.64071 27.0817 7.61984 26.9064 7.57394" fill="#201D1F"/>
<path d="M30.3163 5.70876C30.7002 5.86735 30.8922 5.95498 31.272 6.13861C31.4848 6.24294 31.635 6.33892 31.731 6.42656C31.8562 6.54758 31.9397 6.69365 31.9814 6.86058C32.0231 7.02751 32.0231 7.20695 31.9814 7.39058C31.9438 7.57837 31.8562 7.78703 31.7185 8.02074C31.6016 8.22522 31.4764 8.38381 31.3471 8.50483C31.1885 8.65507 31.0257 8.75523 30.863 8.81365C30.742 8.85956 30.6042 8.87208 30.4498 8.85121C30.3371 8.83452 30.1994 8.78861 30.0367 8.70932C29.707 8.55074 29.5401 8.47562 29.202 8.33373C29.6486 7.28207 29.8739 6.75625 30.3205 5.70459M30.6418 6.37231C30.3246 7.05672 30.166 7.4031 29.8489 8.08751C29.9866 8.15011 30.0534 8.18349 30.1869 8.24609C30.3121 8.30452 30.4081 8.34207 30.4749 8.35459C30.5583 8.37129 30.6376 8.36711 30.7127 8.34208C30.7879 8.31704 30.8671 8.25861 30.959 8.16263C31.0508 8.06664 31.1509 7.92058 31.2553 7.72861C31.3596 7.53664 31.4264 7.37806 31.4472 7.25703C31.4681 7.13601 31.4681 7.02751 31.4389 6.93987C31.4097 6.85223 31.3512 6.77294 31.272 6.70199C31.2094 6.65191 31.0758 6.57262 30.8713 6.47664C30.7795 6.43491 30.7378 6.41404 30.646 6.37231" fill="#201D1F"/>
<path d="M33.1663 10.7291C32.9993 10.5914 32.9159 10.5204 32.7448 10.391C32.8366 10.1323 32.8783 10.0029 32.9618 9.74419C32.6363 9.49796 32.4693 9.38111 32.1271 9.15993C31.9143 9.33104 31.81 9.41867 31.6013 9.59395C31.426 9.48127 31.3384 9.42702 31.1589 9.31852C32.0687 8.52977 32.557 8.15836 33.5669 7.46143C33.7714 7.59914 33.8715 7.67009 34.0719 7.81615C33.7756 9.01387 33.5919 9.59812 33.1663 10.7291ZM33.1162 9.25592C33.2497 8.83025 33.3123 8.61324 33.4333 8.17922C33.0661 8.43796 32.8867 8.57568 32.5319 8.84694C32.7698 9.00552 32.8867 9.08899 33.1162 9.25592Z" fill="#201D1F"/>
<path d="M33.6209 11.1216C33.9422 10.7627 34.1008 10.5833 34.4222 10.2244C34.5724 9.46904 34.6267 9.08093 34.706 8.30054C34.923 8.47164 35.0273 8.55928 35.236 8.73873C35.1525 9.26038 35.0982 9.51912 34.9856 10.0324C35.478 9.87385 35.7284 9.79873 36.2417 9.67353C36.4378 9.86967 36.5338 9.96983 36.7216 10.1701C35.9412 10.3037 35.5615 10.3872 34.8186 10.5958C34.4889 10.9464 34.322 11.1175 33.9923 11.4638C33.8463 11.3261 33.7711 11.2552 33.6251 11.1216" fill="#201D1F"/>
<path d="M36.0405 13.876C35.9112 13.6882 35.8444 13.5922 35.7067 13.4086C35.8611 13.1791 35.932 13.0622 36.0823 12.8285C35.8193 12.4863 35.6858 12.3236 35.4062 12.0022C35.1558 12.1107 35.0306 12.165 34.7802 12.2777C34.6341 12.1149 34.5632 12.0356 34.413 11.8812C35.5022 11.3637 36.0697 11.1342 37.2382 10.7461C37.4052 10.9422 37.4886 11.0424 37.6472 11.2427C37.063 12.3403 36.7416 12.8703 36.0447 13.8718M36.3535 12.3903C36.5914 12.0064 36.7082 11.8103 36.9294 11.4138C36.5038 11.564 36.2951 11.6433 35.8819 11.8103C36.0739 12.0356 36.1699 12.1525 36.3577 12.3903" fill="#201D1F"/>
<path d="M36.2045 14.1138C37.1518 13.4752 37.6234 13.1539 38.5624 12.5112C38.7001 12.7157 38.7627 12.8159 38.8921 13.0245C38.5206 13.8675 38.3161 14.2765 37.8654 15.0527C38.5373 14.6897 38.8712 14.5102 39.5389 14.1471C39.6516 14.36 39.7058 14.4643 39.8143 14.6855C38.7961 15.1946 38.2869 15.4492 37.2687 15.9583C37.1685 15.758 37.1184 15.6579 37.0141 15.4659C37.4606 14.723 37.6693 14.3349 38.0407 13.5295C37.4147 13.9301 37.0976 14.1304 36.4674 14.5269C36.3631 14.3558 36.3088 14.2723 36.2003 14.1096" fill="#201D1F"/>
<path d="M37.515 16.4799C38.5542 16.0083 39.0717 15.7704 40.1066 15.2988C40.2151 15.5409 40.2694 15.6619 40.3695 15.9123C39.3179 16.3505 38.792 16.5675 37.7362 17.0015C37.6486 16.7928 37.6027 16.6885 37.5109 16.484" fill="#201D1F"/>
<path d="M22.0777 31.9959C22.2989 31.7789 23.1043 31.7956 23.3422 31.9959C23.6051 32.2129 23.5425 33.323 23.5425 33.323C23.5425 33.323 24.0057 33.9156 23.9932 34.1493C23.9682 34.5917 23.1335 35.3846 22.6745 35.3846C22.2112 35.3846 21.3766 34.5708 21.3557 34.1201C21.3432 33.878 21.8231 33.2604 21.8231 33.2604C21.8231 33.2604 21.844 32.2254 22.0819 31.9959M22.0985 33.323C22.0985 33.323 21.7689 33.8321 21.7772 34.0325C21.7939 34.4039 22.3656 35.0716 22.6828 35.0758C22.9958 35.0758 23.5717 34.4247 23.5884 34.0575C23.5967 33.8655 23.2796 33.3773 23.2796 33.3773C23.2796 33.3773 23.3213 32.4675 23.146 32.2839C22.9833 32.1169 22.4324 32.1044 22.278 32.2839C22.1152 32.4717 22.1027 33.3272 22.1027 33.3272" fill="#201D1F"/>
<path fill-rule="evenodd" clip-rule="evenodd" d="M23.7475 26.5878C23.3552 25.9576 22.9671 25.2357 22.6958 24.376C22.362 25.2565 22.5539 26.1204 22.7209 26.8591C22.9087 27.702 23.109 28.5576 22.6666 29.8763C22.508 30.3604 22.0865 30.0349 22.2076 29.7469C22.9462 28.0192 22.0573 26.3875 21.8361 25.9076C21.665 26.5168 21.1809 27.2054 20.918 27.7939C20.5591 28.6076 20.4172 29.6468 20.9264 30.4105C21.0224 30.5565 21.1434 30.6901 21.2894 30.8111C21.4063 30.9071 21.5357 30.9906 21.6817 31.0698C21.7694 31.0114 21.8654 30.9572 21.9697 30.9196C21.9989 30.9029 22.0323 30.8946 22.0615 30.8821C22.2535 30.8153 22.4621 30.7735 22.675 30.7735C22.9838 30.7735 23.2801 30.8528 23.5346 30.9864C23.5806 31.0114 23.6265 31.0406 23.6724 31.0698C24.603 30.5774 24.8409 29.6885 24.7282 28.833C24.7073 28.6535 24.6698 28.4699 24.6197 28.2988C24.5696 28.1235 24.507 27.9524 24.4361 27.7939C24.2483 27.3765 24.0062 26.9801 23.7517 26.5794" fill="white"/>
<path fill-rule="evenodd" clip-rule="evenodd" d="M22.9174 23.2531C23.1428 24.8807 23.6811 25.4983 24.1819 26.3538C24.4406 26.7711 24.691 27.176 24.8913 27.6183C24.8913 27.6183 24.8913 27.6225 24.8913 27.6267C24.9706 27.8061 25.0416 27.9981 25.0958 28.19C25.1543 28.382 25.196 28.5865 25.221 28.7868C25.3588 29.8593 25.0374 30.9819 23.7437 31.5662L23.5935 31.633L23.4683 31.5286C23.4349 31.4994 23.4057 31.4786 23.3765 31.4577C23.3472 31.4368 23.3139 31.416 23.2763 31.3993C23.0969 31.3033 22.8924 31.249 22.667 31.249C22.5126 31.249 22.3665 31.2741 22.2288 31.3241C22.208 31.3325 22.1871 31.3408 22.1662 31.345C22.0577 31.3951 21.9576 31.4535 21.8658 31.5286L21.7406 31.6288L21.5903 31.562H21.5861C21.3399 31.4452 21.1271 31.3116 20.9435 31.1614C20.7598 31.0112 20.6138 30.8442 20.4928 30.6606C19.8876 29.7508 20.0337 28.5489 20.4469 27.6225C20.7849 26.863 21.3942 26.2328 21.5528 25.2771C21.6112 24.9391 21.6738 24.5802 21.9701 25.1644C22.0118 25.2479 22.0702 25.3564 22.1203 25.5275C21.9659 24.9224 22.4291 23.637 22.5961 23.2072C22.7421 22.8274 22.8798 22.7106 22.9174 23.2531Z" fill="#EDC41A"/>
<path d="M23.5674 31.8211L23.3629 31.6541C23.3337 31.6291 23.3086 31.6124 23.2878 31.5957H23.2794C23.2794 31.5957 23.2377 31.5623 23.2126 31.5498L23.1959 31.5415C22.9247 31.3954 22.5825 31.3704 22.2862 31.4747C22.2778 31.4747 22.2695 31.483 22.2611 31.483C22.2486 31.4872 22.2361 31.4914 22.2278 31.4956C22.1359 31.5373 22.0483 31.5915 21.9732 31.6541L21.7687 31.8169L21.51 31.7C21.2637 31.5874 21.0384 31.4496 20.8464 31.2869C20.6586 31.1325 20.4917 30.9489 20.3623 30.7527C19.8073 29.9139 19.7864 28.7204 20.3039 27.556C20.4249 27.2806 20.5835 27.0218 20.7379 26.7673C21.0133 26.3124 21.3013 25.8408 21.3973 25.2482C21.4432 24.9728 21.4933 24.689 21.7228 24.689C21.8146 24.689 21.8939 24.7433 21.9648 24.8351C22.0567 24.2174 22.3112 23.4996 22.4489 23.1449C22.5491 22.8862 22.6451 22.7192 22.8078 22.7192C23.0457 22.7192 23.0707 23.0531 23.0833 23.2367C23.2669 24.5513 23.655 25.1814 24.0682 25.8492C24.1516 25.9869 24.2393 26.1246 24.3269 26.2748C24.5606 26.6504 24.8068 27.0427 25.003 27.4642H25.0071L25.0363 27.5352L25.0614 27.5602V27.5936C25.1407 27.7772 25.2074 27.9608 25.2575 28.1444C25.3159 28.3489 25.3619 28.5576 25.3869 28.7621C25.4912 29.5508 25.4203 30.9864 23.8136 31.7084L23.5715 31.8169L23.5674 31.8211ZM23.4672 31.3245C23.5006 31.3495 23.534 31.3745 23.5715 31.4037L23.6174 31.4413L23.68 31.4121C25.0948 30.7736 25.1532 29.5049 25.0614 28.8038C25.0363 28.6118 24.9946 28.4199 24.9404 28.2321C24.8903 28.0568 24.8277 27.8774 24.7484 27.7021L24.7025 27.6353L24.7108 27.6186C24.523 27.2055 24.2893 26.834 24.0431 26.4376C23.9555 26.2915 23.872 26.1496 23.7885 26.0161C23.3754 25.3484 22.9456 24.6598 22.7536 23.2701V23.2576C22.7536 23.2576 22.7536 23.2451 22.7536 23.2409C22.7536 23.2451 22.7494 23.2534 22.7452 23.2576C22.5992 23.6373 22.1318 24.9185 22.2778 25.4777L21.9648 25.5654C21.9189 25.411 21.8689 25.315 21.8271 25.2315C21.7979 25.1731 21.7729 25.1272 21.752 25.0938C21.7395 25.1606 21.7228 25.2399 21.7144 25.2941C21.6059 25.9451 21.3055 26.4459 21.0133 26.9259C20.8589 27.1804 20.7129 27.4225 20.6002 27.6812C20.1286 28.7412 20.137 29.8221 20.6336 30.5649C20.7463 30.7402 20.8881 30.8946 21.0551 31.0282C21.2345 31.1742 21.4348 31.2994 21.6602 31.4037L21.7228 31.433L21.7729 31.3912C21.873 31.3119 21.9857 31.241 22.1109 31.1867H22.1276C22.1276 31.1867 22.1401 31.1742 22.1485 31.1742C22.161 31.1659 22.1777 31.1617 22.1902 31.1575C22.3446 31.1033 22.5115 31.0741 22.6785 31.0741C22.9163 31.0741 23.1542 31.1325 23.3629 31.2452L23.3837 31.2577C23.413 31.2744 23.4463 31.2952 23.4756 31.3161" fill="#201D1F"/>
<path d="M22.2289 25.2146C22.2289 25.2146 22.9801 26.7587 23.0677 27.5975C23.147 28.3737 22.3124 29.9804 22.3124 29.9804C22.3124 29.9804 22.7214 28.4822 22.6671 27.6852C22.617 26.9841 21.966 25.5735 21.966 25.5735L22.2289 25.2188V25.2146Z" fill="#201D1F"/>
</svg>
